<svg width="60" height="60" viewBox="0 0 60 60" fill="none" xmlns="http://www.w3.org/2000/svg"><path d="M57.557 23.513L45 18.133V7.5a.938.938 0 00-.275-.663L40.038 2.15a.938.938 0 00-.663-.275H4.687a2.813 2.813 0 00-2.812 2.813v50.624a2.812 2.812 0 002.813 2.813h37.5A2.812 2.812 0 0045 55.312v-2.33l4.88-3.482a19.725 19.725 0 008.245-16.024v-9.101a.938.938 0 00-.568-.862zM43.125 7.888v.55h-4.688V3.75h.55l4.138 4.138zm-.938 48.362h-37.5a.938.938 0 01-.937-.938V4.688a.937.937 0 01.938-.938h31.875v5.625a.938.938 0 00.937.938h5.625v7.82l-12.557 5.38a.938.938 0 00-.568.862v9.101A19.725 19.725 0 0038.244 49.5l4.881 3.482v2.33a.938.938 0 01-.938.938zM56.25 33.476a17.848 17.848 0 01-7.459 14.495l-4.728 3.377-4.73-3.375a17.847 17.847 0 01-7.458-14.497v-8.483l12.188-5.223 12.187 5.223v8.483z" fill="#2F3235"/><path d="M43.714 22.567l-9.375 3.75a.938.938 0 00-.589.87v5.916a15.862 15.862 0 005.981 12.445l3.746 3a.938.938 0 001.172 0l3.745-3a15.86 15.86 0 005.981-12.445v-5.916a.937.937 0 00-.589-.87l-9.375-3.75a.944.944 0 00-.697 0zm8.786 5.255v5.281a13.99 13.99 0 01-5.277 10.98l-3.16 2.53-3.16-2.532a13.991 13.991 0 01-5.278-10.978v-5.28l8.438-3.376 8.437 3.375zM6.563 18.75h26.25a.938.938 0 00.937-.938V6.563a.938.938 0 00-.938-.937H6.563a.937.937 0 00-.937.938v11.25a.937.937 0 00.938.937zM7.5 7.5h24.375v9.375H7.5V7.5zm19.688 33.75H6.563a.938.938 0 00-.938.938v11.25a.937.937 0 00.938.937h20.625a.938.938 0 00.937-.938v-11.25a.938.938 0 00-.938-.937zM26.25 52.5H7.5v-9.375h18.75V52.5zM5.625 23.438h22.5v1.875h-22.5v-1.875zm0 5.625h22.5v1.875h-22.5v-1.875zm0 5.625h22.5v1.874h-22.5v-1.874z" fill="#2F3235"/></svg>