<svg version="1.0" xmlns="http://www.w3.org/2000/svg" width="333.333" height="333.333" viewBox="0 0 250 250"><path d="M120.4 91.1c-1 1.2-6 5.7-11.1 10-9.5 8.1-10.7 8.4-11.5 2.9-.3-2.4-.7-2.5-7.8-2.8-12.7-.5-12-1.3-12 14.2v13.3l-11 10.1c-6 5.6-12.7 11.3-14.9 12.6-4.8 3.1-5.6 4.3-4.1 6.1 1.6 1.9 28.9 2.2 32.3.3 1.2-.6 11.1-9.7 22-20.2s20.5-19.2 21.2-19.4c.8-.2 5.6 3.6 10.7 8.5 5.2 4.8 15.1 14.1 22.1 20.6L169 159l16.3-.2c15.8-.3 16.2-.4 16.5-2.5.3-1.7-1.1-3.1-6.2-6.5-3.5-2.3-10.2-7.6-14.8-11.6-4.6-4.1-12.3-10.8-17.2-15-4.9-4.2-15.6-13.7-23.8-21C131.7 95 124.4 89 123.6 89c-.7 0-2.1 1-3.2 2.1zm-98 137c-.3.5 7.7.9 17.7.9s18-.3 17.7-.6c-1-.9-34.8-1.2-35.4-.3zm51.9.6c7.6.2 19.8.2 27 0 7.3-.1 1.1-.3-13.8-.3-14.8 0-20.8.2-13.2.3zm70.5 0c2.9.2 7.4.2 10 0 2.6-.2.2-.3-5.3-.3s-7.6.1-4.7.3zm32 0c.6.2 1.8.2 2.5 0 .6-.3.1-.5-1.3-.5-1.4 0-1.9.2-1.2.5z"/></svg>