<svg width="24" height="24" viewBox="0 0 24 24" fill="none" xmlns="http://www.w3.org/2000/svg"><path d="M15.24 12c0-1.8-1.44-3.24-3.24-3.24-1.8 0-3.24 1.44-3.24 3.24 0 1.8 1.44 3.24 3.24 3.24 1.8 0 3.24-1.44 3.24-3.24zm1.68 0c0 2.76-2.16 4.92-4.92 4.92S7.08 14.76 7.08 12 9.24 7.08 12 7.08s4.92 2.16 4.92 4.92zm1.32-5.16c0 .72-.48 1.2-1.2 1.2s-1.2-.48-1.2-1.2.48-1.2 1.2-1.2 1.2.6 1.2 1.2zM12 4.08c-1.44 0-4.44-.12-5.64.36-.84.36-1.56 1.08-1.8 1.92-.48 1.2-.36 4.2-.36 5.64 0 1.44-.12 4.44.36 5.64.24.84.96 1.56 1.8 1.8 1.2.48 4.32.36 5.64.36 1.32 0 4.44.12 5.64-.36a3.31 3.31 0 001.8-1.8c.48-1.32.36-4.32.36-5.64 0-1.32.12-4.44-.36-5.64-.24-.84-.96-1.56-1.8-1.8-1.2-.6-4.2-.48-5.64-.48zM21.6 12v3.96c0 1.44-.48 2.88-1.56 4.08-1.08 1.08-2.52 1.56-4.08 1.56H8.04c-1.44 0-2.88-.48-4.08-1.56a6.153 6.153 0 01-1.56-4.08V8.04c0-1.56.6-3 1.56-4.08C5.16 3 6.6 2.4 8.04 2.4h7.92c1.44 0 2.88.48 4.08 1.56a6.153 6.153 0 011.56 4.08V12z" fill="#fff"/></svg>