<svg width="30" height="30" viewBox="0 0 30 30" fill="none" xmlns="http://www.w3.org/2000/svg">
<path d="M15 1.875C17.9837 1.875 20.8452 3.06026 22.955 5.17005C25.0647 7.27983 26.25 10.1413 26.25 13.125C26.25 18.5006 22.6219 23.4487 15.5025 27.9788C15.3523 28.0741 15.178 28.1248 15 28.1248C14.822 28.1248 14.6477 28.0741 14.4975 27.9788C7.37812 23.4487 3.75 18.5006 3.75 13.125C3.75 10.1413 4.93526 7.27983 7.04505 5.17005C9.15483 3.06026 12.0163 1.875 15 1.875ZM15 3.75C12.5136 3.75 10.129 4.73772 8.37087 6.49587C6.61272 8.25403 5.625 10.6386 5.625 13.125C5.625 17.4844 8.5125 21.6713 14.4 25.6725L15 26.0719L15.6 25.6725C21.4875 21.6713 24.375 17.4844 24.375 13.125C24.375 10.6386 23.3873 8.25403 21.6291 6.49587C19.871 4.73772 17.4864 3.75 15 3.75ZM15 10.3125C15.3693 10.3125 15.7351 10.3852 16.0763 10.5266C16.4175 10.6679 16.7276 10.8751 16.9887 11.1363C17.2499 11.3974 17.4571 11.7075 17.5984 12.0487C17.7398 12.3899 17.8125 12.7557 17.8125 13.125C17.8125 13.4943 17.7398 13.8601 17.5984 14.2013C17.4571 14.5425 17.2499 14.8526 16.9887 15.1137C16.7276 15.3749 16.4175 15.5821 16.0763 15.7234C15.7351 15.8648 15.3693 15.9375 15 15.9375C14.2541 15.9375 13.5387 15.6412 13.0113 15.1137C12.4838 14.5863 12.1875 13.8709 12.1875 13.125C12.1875 12.3791 12.4838 11.6637 13.0113 11.1363C13.5387 10.6088 14.2541 10.3125 15 10.3125Z" fill="white"/>
</svg>
