<svg width="40" height="40" viewBox="0 0 40 40" fill="none" xmlns="http://www.w3.org/2000/svg">
<path d="M24.3052 6.08859C24.348 5.92847 24.4526 5.79192 24.5961 5.70897C24.7396 5.62601 24.9102 5.60345 25.0703 5.64625C27.2954 6.24461 29.3243 7.41716 30.9535 9.04645C32.5828 10.6757 33.7554 12.7046 34.3538 14.9297C34.3761 15.0093 34.3824 15.0926 34.3723 15.1747C34.3622 15.2568 34.3359 15.3361 34.295 15.408C34.254 15.4799 34.1992 15.5429 34.1337 15.5934C34.0682 15.6439 33.9933 15.6809 33.9134 15.7023C33.8335 15.7237 33.7501 15.729 33.6682 15.7179C33.5862 15.7068 33.5072 15.6795 33.4359 15.6377C33.3645 15.5958 33.3022 15.5402 33.2524 15.4741C33.2027 15.408 33.1666 15.3327 33.1463 15.2525C32.6049 13.2394 31.5441 11.4039 30.0701 9.92989C28.5961 8.45586 26.7606 7.39505 24.7475 6.85375C24.5874 6.81093 24.4508 6.70626 24.3679 6.56277C24.2849 6.41928 24.2624 6.24871 24.3052 6.08859ZM23.4531 11.6844C24.6186 11.9978 25.6812 12.612 26.5346 13.4654C27.388 14.3188 28.0021 15.3814 28.3155 16.5469C28.3361 16.6268 28.3723 16.7019 28.4221 16.7678C28.4718 16.8337 28.5342 16.889 28.6055 16.9307C28.6768 16.9723 28.7556 16.9994 28.8374 17.0104C28.9193 17.0214 29.0025 17.0161 29.0822 16.9948C29.162 16.9734 29.2367 16.9365 29.3021 16.8861C29.3675 16.8357 29.4223 16.7729 29.4633 16.7012C29.5043 16.6295 29.5307 16.5505 29.5409 16.4685C29.5511 16.3866 29.545 16.3035 29.523 16.2239C29.1526 14.8464 28.4267 13.5904 27.418 12.5818C26.4094 11.5732 25.1534 10.8473 23.7759 10.4769C23.6963 10.4545 23.613 10.4482 23.5309 10.4583C23.4488 10.4684 23.3695 10.4947 23.2976 10.5356C23.2258 10.5766 23.1627 10.6314 23.1122 10.6969C23.0617 10.7624 23.0247 10.8373 23.0033 10.9172C22.982 10.9971 22.9767 11.0805 22.9878 11.1625C22.9989 11.2444 23.0261 11.3234 23.068 11.3948C23.1098 11.4661 23.1654 11.5285 23.2315 11.5782C23.2976 11.6279 23.373 11.664 23.4531 11.6844ZM35.5606 27.2777C35.3085 29.2379 34.3513 31.0394 32.868 32.3455C31.3846 33.6516 29.4764 34.373 27.5 34.375C15.4381 34.375 5.625 24.5619 5.625 12.5C5.62694 10.5236 6.34829 8.61555 7.65431 7.13218C8.96032 5.64882 10.7617 4.69161 12.7219 4.43937C13.1246 4.39108 13.5321 4.47445 13.8835 4.67701C14.2349 4.87957 14.5112 5.19044 14.6713 5.56312L17.8105 12.8875C17.9326 13.1717 17.9824 13.4817 17.9554 13.7898C17.9284 14.0979 17.8255 14.3945 17.6558 14.6531L15.0564 18.625C14.9976 18.7131 14.9625 18.8149 14.9545 18.9206C14.9466 19.0263 14.9661 19.1322 15.0111 19.2281C16.2481 21.7516 18.2942 23.7884 20.8233 25.0139C20.9198 25.0586 21.0262 25.0776 21.1322 25.0688C21.2382 25.0601 21.3401 25.0241 21.428 24.9642L25.3398 22.3556C25.5991 22.1821 25.8977 22.0763 26.2084 22.0477C26.5191 22.0192 26.832 22.0688 27.1186 22.1922L34.437 25.3288C34.8096 25.4888 35.1204 25.7651 35.3229 26.1164C35.5254 26.4678 35.6087 26.8752 35.5605 27.2778L35.5606 27.2777ZM33.9444 26.4775L26.6263 23.3411C26.5307 23.3 26.4264 23.2834 26.3228 23.2929C26.2192 23.3024 26.1196 23.3377 26.0331 23.3955L22.1214 26.0041C21.8524 26.1842 21.5413 26.2913 21.2184 26.3151C20.8956 26.3388 20.5721 26.2783 20.2797 26.1395C17.4984 24.7916 15.2483 22.5516 13.8878 19.7764V19.7766C13.7482 19.4858 13.6862 19.164 13.7077 18.8422C13.7292 18.5204 13.8336 18.2097 14.0106 17.9402L16.61 13.9687C16.6666 13.8825 16.7009 13.7836 16.7099 13.6809C16.7189 13.5781 16.7023 13.4748 16.6616 13.38L13.5223 6.05562C13.4748 5.94362 13.3956 5.84793 13.2945 5.78029C13.1933 5.71265 13.0746 5.676 12.953 5.67484C12.9282 5.67481 12.9034 5.67638 12.8788 5.67953C11.2203 5.89303 9.69623 6.70302 8.59137 7.95819C7.4865 9.21335 6.87639 10.8278 6.875 12.5C6.875 23.8727 16.1273 33.125 27.5 33.125C29.1722 33.1236 30.7866 32.5134 32.0418 31.4085C33.2969 30.3036 34.1069 28.7796 34.3203 27.1211C34.3356 26.9876 34.3072 26.8528 34.2394 26.7368C34.1716 26.6208 34.0681 26.5299 33.9444 26.4777V26.4775Z" fill="black"/>
</svg>
