<?xml version="1.0" encoding="utf-8"?><svg width="156" height="156" fill="none" xmlns="http://www.w3.org/2000/svg" viewBox="0 0 156 156"><g clip-path="url(#cclip0)" fill="#fff"><path d="M145.627 80.02a4.57 4.57 0 010-4.04l5.818-11.903a13.542 13.542 0 00-5.843-17.983l-11.703-6.21a4.57 4.57 0 01-2.375-3.269l-2.289-13.05a13.543 13.543 0 00-15.298-11.114l-13.117 1.856a4.572 4.572 0 01-3.843-1.25l-9.522-9.21a13.542 13.542 0 00-18.91 0l-9.521 9.212a4.573 4.573 0 01-3.843 1.248l-13.118-1.855a13.541 13.541 0 00-15.298 11.115l-2.288 13.048a4.573 4.573 0 01-2.375 3.27l-11.703 6.21a13.543 13.543 0 00-5.844 17.983l5.818 11.902a4.571 4.571 0 010 4.041L4.555 91.924a13.542 13.542 0 005.843 17.983l11.703 6.209a4.573 4.573 0 012.376 3.269l2.288 13.05a13.535 13.535 0 0013.35 11.252c.642 0 1.294-.045 1.948-.138l13.118-1.855a4.57 4.57 0 013.843 1.248l9.522 9.212A13.55 13.55 0 0078 156c3.401 0 6.804-1.282 9.455-3.846l9.522-9.212a4.577 4.577 0 013.843-1.248l13.117 1.855a13.541 13.541 0 0015.298-11.115l2.289-13.048a4.574 4.574 0 012.375-3.27l11.703-6.209a13.542 13.542 0 005.843-17.984l-5.818-11.902zm-4.242 21.939l-11.703 6.209a13.513 13.513 0 00-7.02 9.663l-2.289 13.049a4.582 4.582 0 01-5.176 3.76l-13.117-1.855a13.506 13.506 0 00-11.36 3.69l-9.521 9.211a4.582 4.582 0 01-6.398 0l-9.522-9.211a13.5 13.5 0 00-9.422-3.828c-.642 0-1.289.046-1.937.137l-13.117 1.856a4.583 4.583 0 01-5.176-3.761l-2.289-13.049a13.509 13.509 0 00-7.02-9.662l-11.703-6.21a4.581 4.581 0 01-1.977-6.084l5.818-11.902a13.511 13.511 0 000-11.944l-5.818-11.902a4.582 4.582 0 011.977-6.084l11.703-6.21a13.512 13.512 0 007.02-9.662l2.289-13.05a4.582 4.582 0 015.175-3.76l13.118 1.856a13.512 13.512 0 0011.359-3.691l9.522-9.211a4.582 4.582 0 016.397 0l9.522 9.211a13.51 13.51 0 0011.359 3.69l13.118-1.855a4.582 4.582 0 015.175 3.76l2.289 13.05a13.51 13.51 0 007.021 9.662l11.703 6.21a4.582 4.582 0 011.977 6.084l-5.819 11.902a13.511 13.511 0 000 11.943l5.819 11.902a4.583 4.583 0 01-1.977 6.086z"/><path d="M110.87 45.129a4.499 4.499 0 00-6.362 0l-59.38 59.38a4.498 4.498 0 106.362 6.362l59.38-59.38a4.499 4.499 0 000-6.362zM60.005 37.512c-9.095 0-16.495 7.4-16.495 16.495 0 9.096 7.4 16.495 16.495 16.495 9.096 0 16.495-7.4 16.495-16.495s-7.4-16.495-16.495-16.495zm0 23.993c-4.134 0-7.498-3.364-7.498-7.498s3.364-7.498 7.498-7.498 7.498 3.364 7.498 7.498-3.364 7.498-7.498 7.498zM95.995 85.498c-9.095 0-16.495 7.4-16.495 16.495 0 9.096 7.4 16.496 16.495 16.496 9.096 0 16.496-7.4 16.496-16.496 0-9.095-7.4-16.495-16.496-16.495zm0 23.993c-4.134 0-7.498-3.363-7.498-7.498 0-4.134 3.364-7.497 7.498-7.497 4.135 0 7.498 3.363 7.498 7.497 0 4.135-3.363 7.498-7.498 7.498z"/></g><defs><clipPath id="cclip0"><path fill="#fff" d="M0 0h156v156H0z"/></clipPath></defs></svg>