<svg width="36" height="34" viewBox="0 0 36 34" fill="none" xmlns="http://www.w3.org/2000/svg">
<mask id="path-1-inside-1" fill="white">
<path d="M34.7949 32.0244L24.165 21.832C26.2842 19.4223 27.3438 16.6435 27.3438 13.4957C27.3438 11.1294 26.7342 8.94762 25.5151 6.95038C24.2961 4.95314 22.6327 3.37381 20.5249 2.21237C18.4172 1.05093 16.1271 0.470215 13.6548 0.470215C11.1825 0.470215 8.89811 1.05093 6.80176 2.21237C4.7054 3.37381 3.04769 4.95314 1.82861 6.95038C0.609538 8.94762 0 11.1294 0 13.4957C0 15.862 0.609538 18.0437 1.82861 20.041C3.04769 22.0382 4.7054 23.6175 6.80176 24.779C8.89811 25.9404 11.1882 26.5211 13.6719 26.5211C17.0671 26.5211 20.0521 25.4574 22.627 23.3299L33.2227 33.4897C33.4505 33.7068 33.7126 33.8154 34.0088 33.8154C34.305 33.8154 34.5614 33.7123 34.7778 33.506C34.9943 33.2998 35.1025 33.0501 35.1025 32.7571C35.1025 32.464 35 32.2198 34.7949 32.0244ZM13.6719 24.4696C11.5755 24.4696 9.64437 23.9757 7.87842 22.988C6.11247 22.0002 4.7168 20.6651 3.69141 18.9826C2.66602 17.3002 2.15332 15.4712 2.15332 13.4957C2.15332 11.5201 2.66602 9.69115 3.69141 8.0087C4.7168 6.32624 6.11247 4.99113 7.87842 4.00337C9.64437 3.01561 11.5698 2.52172 13.6548 2.52172C15.7397 2.52172 17.6652 3.01561 19.4312 4.00337C21.1971 4.99113 22.5928 6.32624 23.6182 8.0087C24.6436 9.69115 25.1562 11.5201 25.1562 13.4957C25.1562 14.3423 25.0537 15.1781 24.8486 16.0031C24.6436 16.828 24.353 17.5987 23.9771 18.3151C23.6011 19.0315 23.151 19.7099 22.627 20.3503C22.1029 20.9907 21.5104 21.5606 20.8496 22.0599C20.1888 22.5592 19.4824 22.988 18.7305 23.3462C17.9785 23.7044 17.1696 23.9812 16.3037 24.1765C15.4378 24.3719 14.5605 24.4696 13.6719 24.4696Z"/>
</mask>
<path d="M34.7949 32.0244L24.165 21.832C26.2842 19.4223 27.3438 16.6435 27.3438 13.4957C27.3438 11.1294 26.7342 8.94762 25.5151 6.95038C24.2961 4.95314 22.6327 3.37381 20.5249 2.21237C18.4172 1.05093 16.1271 0.470215 13.6548 0.470215C11.1825 0.470215 8.89811 1.05093 6.80176 2.21237C4.7054 3.37381 3.04769 4.95314 1.82861 6.95038C0.609538 8.94762 0 11.1294 0 13.4957C0 15.862 0.609538 18.0437 1.82861 20.041C3.04769 22.0382 4.7054 23.6175 6.80176 24.779C8.89811 25.9404 11.1882 26.5211 13.6719 26.5211C17.0671 26.5211 20.0521 25.4574 22.627 23.3299L33.2227 33.4897C33.4505 33.7068 33.7126 33.8154 34.0088 33.8154C34.305 33.8154 34.5614 33.7123 34.7778 33.506C34.9943 33.2998 35.1025 33.0501 35.1025 32.7571C35.1025 32.464 35 32.2198 34.7949 32.0244ZM13.6719 24.4696C11.5755 24.4696 9.64437 23.9757 7.87842 22.988C6.11247 22.0002 4.7168 20.6651 3.69141 18.9826C2.66602 17.3002 2.15332 15.4712 2.15332 13.4957C2.15332 11.5201 2.66602 9.69115 3.69141 8.0087C4.7168 6.32624 6.11247 4.99113 7.87842 4.00337C9.64437 3.01561 11.5698 2.52172 13.6548 2.52172C15.7397 2.52172 17.6652 3.01561 19.4312 4.00337C21.1971 4.99113 22.5928 6.32624 23.6182 8.0087C24.6436 9.69115 25.1562 11.5201 25.1562 13.4957C25.1562 14.3423 25.0537 15.1781 24.8486 16.0031C24.6436 16.828 24.353 17.5987 23.9771 18.3151C23.6011 19.0315 23.151 19.7099 22.627 20.3503C22.1029 20.9907 21.5104 21.5606 20.8496 22.0599C20.1888 22.5592 19.4824 22.988 18.7305 23.3462C17.9785 23.7044 17.1696 23.9812 16.3037 24.1765C15.4378 24.3719 14.5605 24.4696 13.6719 24.4696Z" fill="white"/>
<path d="M34.7949 32.0244L31.3344 35.6334L31.3402 35.6389L31.346 35.6445L34.7949 32.0244ZM24.165 21.832L20.4104 18.5301L17.2477 22.1264L20.7045 25.441L24.165 21.832ZM22.627 23.3299L26.0875 19.7209L22.8741 16.6397L19.4422 19.4754L22.627 23.3299ZM33.2227 33.4897L29.7621 37.0987L29.7679 37.1043L29.7737 37.1098L33.2227 33.4897ZM38.2554 28.4154L27.6255 18.2229L20.7045 25.441L31.3344 35.6334L38.2554 28.4154ZM27.9197 25.1339C30.8243 21.831 32.3438 17.8846 32.3438 13.4957H22.3438C22.3438 15.4024 21.744 17.0135 20.4104 18.5301L27.9197 25.1339ZM32.3438 13.4957C32.3438 10.2212 31.4865 7.13645 29.7829 4.3454L21.2473 9.55536C21.9819 10.7588 22.3438 12.0376 22.3438 13.4957H32.3438ZM29.7829 4.3454C28.0972 1.58365 25.7851 -0.597932 22.938 -2.1668L18.1118 6.59154C19.4802 7.34554 20.4949 8.32264 21.2473 9.55536L29.7829 4.3454ZM22.938 -2.1668C20.0704 -3.74694 16.9469 -4.52979 13.6548 -4.52979V5.47021C15.3073 5.47021 16.7639 5.8488 18.1118 6.59154L22.938 -2.1668ZM13.6548 -4.52979C10.3626 -4.52979 7.24058 -3.74684 4.37865 -2.16125L9.22486 6.58599C10.5556 5.8487 12.0023 5.47021 13.6548 5.47021V-4.52979ZM4.37865 -2.16125C1.54378 -0.590654 -0.757498 1.59026 -2.43918 4.3454L6.09641 9.55536C6.85288 8.31602 7.86703 7.33827 9.22486 6.58599L4.37865 -2.16125ZM-2.43918 4.3454C-4.14279 7.13645 -5 10.2212 -5 13.4957H5C5 12.0376 5.36186 10.7588 6.09641 9.55536L-2.43918 4.3454ZM-5 13.4957C-5 16.7701 -4.14279 19.8549 -2.43918 22.6459L6.09641 17.436C5.36186 16.2326 5 14.9538 5 13.4957H-5ZM-2.43918 22.6459C-0.757498 25.4011 1.54378 27.582 4.37865 29.1526L9.22486 20.4054C7.86703 19.6531 6.85288 18.6753 6.09641 17.436L-2.43918 22.6459ZM4.37865 29.1526C7.2441 30.7401 10.3725 31.5211 13.6719 31.5211V21.5211C12.0038 21.5211 10.5521 21.1407 9.22486 20.4054L4.37865 29.1526ZM13.6719 31.5211C18.2086 31.5211 22.3247 30.0656 25.8117 27.1844L19.4422 19.4754C17.7795 20.8492 15.9255 21.5211 13.6719 21.5211V31.5211ZM19.1664 26.9389L29.7621 37.0987L36.6832 29.8808L26.0875 19.7209L19.1664 26.9389ZM29.7737 37.1098C30.8674 38.1518 32.3427 38.8154 34.0088 38.8154V28.8154C34.4876 28.8154 35.0011 28.9065 35.5036 29.1146C36.0006 29.3205 36.3884 29.5999 36.6716 29.8697L29.7737 37.1098ZM34.0088 38.8154C35.6025 38.8154 37.0902 38.2089 38.2267 37.1261L31.3289 29.886C31.6412 29.5884 32.0514 29.3028 32.5572 29.0993C33.0639 28.8955 33.564 28.8154 34.0088 28.8154V38.8154ZM38.2267 37.1261C39.4111 35.9977 40.1025 34.4491 40.1025 32.7571H30.1025C30.1025 32.2728 30.1954 31.7254 30.4339 31.1753C30.6715 30.6274 31.0004 30.199 31.3289 29.886L38.2267 37.1261ZM40.1025 32.7571C40.1025 31.1493 39.4774 29.5796 38.2438 28.4043L31.346 35.6445C30.9846 35.3002 30.6492 34.8463 30.4155 34.2897C30.1833 33.7367 30.1025 33.2043 30.1025 32.7571H40.1025ZM13.6719 19.4696C12.3981 19.4696 11.3118 19.1794 10.3192 18.6242L5.4376 27.3517C7.97691 28.7721 10.753 29.4696 13.6719 29.4696V19.4696ZM10.3192 18.6242C9.28315 18.0447 8.52607 17.3078 7.96095 16.3805L-0.578135 21.5848C0.907528 24.0224 2.94179 25.9557 5.4376 27.3517L10.3192 18.6242ZM7.96095 16.3805C7.41464 15.4841 7.15332 14.5558 7.15332 13.4957H-2.84668C-2.84668 16.3866 -2.0826 19.1162 -0.578135 21.5848L7.96095 16.3805ZM7.15332 13.4957C7.15332 12.4355 7.41464 11.5072 7.96095 10.6108L-0.578135 5.40658C-2.0826 7.8751 -2.84668 10.6047 -2.84668 13.4957H7.15332ZM7.96095 10.6108C8.52607 9.68357 9.28315 8.94666 10.3192 8.36713L5.4376 -0.36039C2.94179 1.03561 0.907528 2.96891 -0.578135 5.40658L7.96095 10.6108ZM10.3192 8.36713C11.316 7.80959 12.3973 7.52172 13.6548 7.52172V-2.47828C10.7423 -2.47828 7.97271 -1.77838 5.4376 -0.36039L10.3192 8.36713ZM13.6548 7.52172C14.9122 7.52172 15.9935 7.80959 16.9903 8.36713L21.872 -0.36039C19.3369 -1.77838 16.5673 -2.47828 13.6548 -2.47828V7.52172ZM16.9903 8.36713C18.0264 8.94666 18.7835 9.68357 19.3486 10.6108L27.8877 5.40658C26.402 2.96891 24.3678 1.03561 21.872 -0.36039L16.9903 8.36713ZM19.3486 10.6108C19.8949 11.5072 20.1562 12.4355 20.1562 13.4957H30.1562C30.1562 10.6047 29.3922 7.8751 27.8877 5.40658L19.3486 10.6108ZM20.1562 13.4957C20.1562 13.9341 20.1037 14.3648 19.9963 14.7968L29.7009 17.2093C30.0037 15.9914 30.1562 14.7506 30.1562 13.4957H20.1562ZM19.9963 14.7968C19.8828 15.2533 19.7307 15.6467 19.5497 15.9916L28.4044 20.6386C28.9754 19.5507 29.4043 18.4027 29.7009 17.2093L19.9963 14.7968ZM19.5497 15.9916C19.3343 16.4021 19.0725 16.7988 18.7575 17.1837L26.4964 23.5169C27.2296 22.621 27.8679 21.6609 28.4044 20.6386L19.5497 15.9916ZM18.7575 17.1837C18.485 17.5167 18.1797 17.8105 17.8353 18.0707L23.8639 26.0492C24.8411 25.3107 25.7207 24.4648 26.4964 23.5169L18.7575 17.1837ZM17.8353 18.0707C17.4456 18.3652 17.0289 18.6184 16.5802 18.8322L20.8808 27.8602C21.936 27.3575 22.932 26.7533 23.8639 26.0492L17.8353 18.0707ZM16.5802 18.8322C16.1848 19.0205 15.7304 19.1802 15.2032 19.2992L17.4043 29.0539C18.6088 28.7821 19.7723 28.3882 20.8808 27.8602L16.5802 18.8322ZM15.2032 19.2992C14.6989 19.413 14.1907 19.4696 13.6719 19.4696V29.4696C14.9304 29.4696 16.1768 29.3309 17.4043 29.0539L15.2032 19.2992Z" fill="white" mask="url(#path-1-inside-1)"/>
</svg>
