<svg width="34" height="34" viewBox="0 0 34 34" fill="none" xmlns="http://www.w3.org/2000/svg">
<path d="M17.0007 0.333344C13.7043 0.333344 10.482 1.31083 7.74116 3.14218C5.00034 4.97354 2.86413 7.57652 1.60267 10.622C0.341206 13.6674 0.0111502 17.0185 0.654237 20.2515C1.29732 23.4845 2.88467 26.4542 5.21555 28.7851C7.54642 31.116 10.5161 32.7033 13.7492 33.3464C16.9822 33.9895 20.3333 33.6595 23.3787 32.398C26.4242 31.1365 29.0271 29.0003 30.8585 26.2595C32.6898 23.5187 33.6673 20.2964 33.6673 17C33.6673 14.8113 33.2362 12.644 32.3987 10.622C31.5611 8.59986 30.3334 6.76254 28.7858 5.2149C27.2381 3.66725 25.4008 2.4396 23.3787 1.60202C21.3566 0.76444 19.1894 0.333344 17.0007 0.333344ZM21.5173 19.15C21.6735 19.3049 21.7975 19.4893 21.8821 19.6924C21.9668 19.8955 22.0103 20.1133 22.0103 20.3333C22.0103 20.5534 21.9668 20.7712 21.8821 20.9743C21.7975 21.1774 21.6735 21.3617 21.5173 21.5167C21.3624 21.6729 21.1781 21.7969 20.975 21.8815C20.7719 21.9661 20.554 22.0097 20.334 22.0097C20.114 22.0097 19.8961 21.9661 19.693 21.8815C19.4899 21.7969 19.3056 21.6729 19.1507 21.5167L17.0007 19.35L14.8507 21.5167C14.6957 21.6729 14.5114 21.7969 14.3083 21.8815C14.1052 21.9661 13.8873 22.0097 13.6673 22.0097C13.4473 22.0097 13.2295 21.9661 13.0264 21.8815C12.8233 21.7969 12.6389 21.6729 12.484 21.5167C12.3278 21.3617 12.2038 21.1774 12.1192 20.9743C12.0346 20.7712 11.991 20.5534 11.991 20.3333C11.991 20.1133 12.0346 19.8955 12.1192 19.6924C12.2038 19.4893 12.3278 19.3049 12.484 19.15L14.6507 17L12.484 14.85C12.1702 14.5362 11.9938 14.1105 11.9938 13.6667C11.9938 13.2228 12.1702 12.7972 12.484 12.4833C12.7978 12.1695 13.2235 11.9932 13.6673 11.9932C14.1112 11.9932 14.5368 12.1695 14.8507 12.4833L17.0007 14.65L19.1507 12.4833C19.4645 12.1695 19.8902 11.9932 20.334 11.9932C20.7778 11.9932 21.2035 12.1695 21.5173 12.4833C21.8312 12.7972 22.0075 13.2228 22.0075 13.6667C22.0075 14.1105 21.8312 14.5362 21.5173 14.85L19.3507 17L21.5173 19.15Z" fill="#FF2626"/>
</svg>
