<?xml version="1.0" encoding="utf-8"?><svg width="60" height="60" fill="none" xmlns="http://www.w3.org/2000/svg" viewBox="0 0 60 60"><g clip-path="url(#mclip0)" fill="#2F3235"><path d="M59 35h-3.068L54 6.932A1 1 0 0053 6h-6a1 1 0 00-1 .932L44.065 35H42v-6a1 1 0 00-1.625-.78L32 34.92V29a1 1 0 00-1.625-.78L22 34.92V29a1 1 0 00-1.625-.78L12 34.92V29a1 1 0 00-1.515-.857l-10 6A1 1 0 000 35v24a1 1 0 001 1h58a1 1 0 001-1V36a1 1 0 00-1-1zM47.932 8h4.133l1.862 27h-7.857l1.862-27zM34 58V46h6v12h-6zm24 0H42V45a1 1 0 00-1-1h-8a1 1 0 00-1 1v13H2V35.566l8-4.8V37a1 1 0 001.625.781l8.375-6.7V37a1 1 0 001.625.782l8.375-6.7V37a1 1 0 001.625.782l8.374-6.7V36a1 1 0 001 1h17v21zM33.993 2c.364.195.692.45.972.752A3.499 3.499 0 0037.2 4a3.65 3.65 0 002.356-1.3c.253-.265.536-.5.844-.7.206.01.745.514 1.035.785A3.349 3.349 0 0043.6 4a3.904 3.904 0 002.512-1.378c.245-.23.616-.579.688-.621.537 0 .66.177.99.654A2.529 2.529 0 0050 4a1 1 0 000-2c-.2 0-.24-.013-.564-.483A2.955 2.955 0 0046.8 0a3.21 3.21 0 00-2.058 1.164c-.332.314-.889.837-1.1.841a4.07 4.07 0 01-.842-.678A3.711 3.711 0 0040.4 0a3.467 3.467 0 00-2.211 1.236c-.28.301-.605.559-.961.765a3.89 3.89 0 01-.9-.71A3.627 3.627 0 0033.999 0a1 1 0 00-.006 2z"/><path d="M11 46H7a1 1 0 00-1 1v6a1 1 0 001 1h4a1 1 0 001-1v-6a1 1 0 00-1-1zm-1 6H8v-4h2v4zM19 46h-4a1 1 0 00-1 1v6a1 1 0 001 1h4a1 1 0 001-1v-6a1 1 0 00-1-1zm-1 6h-2v-4h2v4zM27 46h-4a1 1 0 00-1 1v6a1 1 0 001 1h4a1 1 0 001-1v-6a1 1 0 00-1-1zm-1 6h-2v-4h2v4z"/></g><defs><clipPath id="mclip0"><path fill="#fff" d="M0 0h60v60H0z"/></clipPath></defs></svg>