<?xml version="1.0" encoding="utf-8"?><svg width="60" height="60" fill="none" xmlns="http://www.w3.org/2000/svg" viewBox="0 0 60 60"><g clip-path="url(#kclip0)" fill="#2F3235"><path d="M12.54 22.266c0 9.692 7.884 17.578 17.577 17.578 9.693 0 17.578-7.886 17.578-17.578 0-9.693-7.885-17.578-17.578-17.578S12.54 12.572 12.54 22.265zM30.116 7.03c8.4 0 15.235 6.834 15.235 15.235 0 8.4-6.834 15.234-15.235 15.234-8.4 0-15.234-6.834-15.234-15.234S21.717 7.03 30.117 7.03z"/><path d="M19.265 20.177l4.542 4.475-1.045 6.29a1.172 1.172 0 001.696 1.233l5.66-2.94 5.658 2.94a1.171 1.171 0 001.696-1.233l-1.045-6.29 4.542-4.476a1.171 1.171 0 00-.648-1.993l-6.304-.949-2.852-5.704a1.171 1.171 0 00-2.096 0l-2.852 5.704-6.304.949a1.172 1.172 0 00-.648 1.994zm7.902-.716c.378-.057.703-.293.874-.634l2.076-4.153 2.076 4.153c.17.34.497.577.874.634l4.588.69-3.306 3.258c-.272.268-.396.65-.334 1.027l.76 4.578-4.118-2.139a1.169 1.169 0 00-1.08 0l-4.119 2.14.76-4.579a1.171 1.171 0 00-.333-1.027l-3.306-3.257 4.588-.691zM31.29 1.172a1.172 1.172 0 11-2.344 0 1.172 1.172 0 012.343 0z"/><path d="M24.594.69C14.736 3.208 7.852 12.08 7.852 22.267c0 6.327 2.66 12.288 7.33 16.51l-7.06 12.442a1.172 1.172 0 001.257 1.726l8.017-1.665 2.818 7.941a1.172 1.172 0 002.123.187l7.78-13.678 7.78 13.678a1.172 1.172 0 002.123-.187l2.818-7.94 8.017 1.664a1.173 1.173 0 001.258-1.726l-7.06-12.442a22.196 22.196 0 007.33-16.51c0-10.187-6.885-19.059-16.743-21.575a1.172 1.172 0 10-.58 2.27c8.82 2.252 14.98 10.19 14.98 19.305 0 11.093-9.01 19.922-19.923 19.922-10.92 0-19.922-8.837-19.922-19.922 0-9.115 6.16-17.053 14.979-19.304a1.173 1.173 0 00-.58-2.271zm-3.027 55.332l-2.303-6.49a1.172 1.172 0 00-1.343-.755l-6.483 1.346 5.587-9.847a22.312 22.312 0 0011.127 4.168l-6.585 11.578zm20.746-7.245a1.172 1.172 0 00-1.343.755l-2.302 6.49-6.586-11.578a22.314 22.314 0 0011.127-4.169l5.588 9.848-6.484-1.346z"/></g><defs><clipPath id="kclip0"><path fill="#fff" d="M0 0h60v60H0z"/></clipPath></defs></svg>