<?xml version="1.0" encoding="utf-8"?><svg width="36" height="34" fill="none" xmlns="http://www.w3.org/2000/svg" viewBox="0 0 36 34"><mask id="sa" fill="#fff"><path d="M34.795 32.024l-10.63-10.192c2.12-2.41 3.179-5.189 3.179-8.336 0-2.367-.61-4.548-1.829-6.546-1.219-1.997-2.882-3.576-4.99-4.738C18.417 1.051 16.127.47 13.655.47c-2.473 0-4.757.58-6.853 1.742C4.705 3.374 3.048 4.953 1.829 6.95.609 8.948 0 11.13 0 13.496c0 2.366.61 4.548 1.829 6.545 1.219 1.997 2.876 3.576 4.973 4.738 2.096 1.161 4.386 1.742 6.87 1.742 3.395 0 6.38-1.064 8.955-3.191l10.596 10.16c.227.217.49.325.786.325.296 0 .552-.103.769-.309a.996.996 0 00.325-.749.97.97 0 00-.308-.733zM13.672 24.47c-2.097 0-4.028-.494-5.794-1.482s-3.161-2.323-4.187-4.005a10.35 10.35 0 01-1.538-5.487c0-1.976.513-3.805 1.538-5.487C4.717 6.326 6.112 4.99 7.878 4.003c1.766-.987 3.692-1.481 5.777-1.481s4.01.494 5.776 1.481c1.766.988 3.162 2.323 4.187 4.006a10.35 10.35 0 011.538 5.487c0 .846-.102 1.682-.307 2.507a10.303 10.303 0 01-.872 2.312 12.056 12.056 0 01-1.35 2.035c-.524.64-1.117 1.21-1.777 1.71-.661.5-1.368.928-2.12 1.286s-1.56.635-2.426.83a11.92 11.92 0 01-2.632.294z"/></mask><path d="M34.795 32.024l-10.63-10.192c2.12-2.41 3.179-5.189 3.179-8.336 0-2.367-.61-4.548-1.829-6.546-1.219-1.997-2.882-3.576-4.99-4.738C18.417 1.051 16.127.47 13.655.47c-2.473 0-4.757.58-6.853 1.742C4.705 3.374 3.048 4.953 1.829 6.95.609 8.948 0 11.13 0 13.496c0 2.366.61 4.548 1.829 6.545 1.219 1.997 2.876 3.576 4.973 4.738 2.096 1.161 4.386 1.742 6.87 1.742 3.395 0 6.38-1.064 8.955-3.191l10.596 10.16c.227.217.49.325.786.325.296 0 .552-.103.769-.309a.996.996 0 00.325-.749.97.97 0 00-.308-.733zM13.672 24.47c-2.097 0-4.028-.494-5.794-1.482s-3.161-2.323-4.187-4.005a10.35 10.35 0 01-1.538-5.487c0-1.976.513-3.805 1.538-5.487C4.717 6.326 6.112 4.99 7.878 4.003c1.766-.987 3.692-1.481 5.777-1.481s4.01.494 5.776 1.481c1.766.988 3.162 2.323 4.187 4.006a10.35 10.35 0 011.538 5.487c0 .846-.102 1.682-.307 2.507a10.303 10.303 0 01-.872 2.312 12.056 12.056 0 01-1.35 2.035c-.524.64-1.117 1.21-1.777 1.71-.661.5-1.368.928-2.12 1.286s-1.56.635-2.426.83a11.92 11.92 0 01-2.632.294z" fill="#fff"/><path d="M34.795 32.024l-3.46 3.61.005.005.006.005 3.449-3.62zm-10.63-10.192L20.41 18.53l-3.162 3.596 3.456 3.315 3.461-3.609zm-1.538 1.498l3.46-3.61-3.213-3.08-3.432 2.835 3.185 3.855zm10.596 10.16l-3.46 3.609.005.005.006.006 3.449-3.62zm5.032-5.075l-10.63-10.192-6.92 7.218 10.63 10.192 6.92-7.218zM27.92 25.134c2.904-3.303 4.424-7.25 4.424-11.638h-10c0 1.906-.6 3.518-1.934 5.034l7.51 6.604zm4.424-11.638c0-3.275-.858-6.36-2.561-9.15l-8.536 5.21c.735 1.203 1.097 2.482 1.097 3.94h10zm-2.561-9.15c-1.686-2.762-3.998-4.944-6.845-6.513l-4.826 8.759c1.368.754 2.383 1.73 3.135 2.963l8.536-5.21zm-6.845-6.513c-2.868-1.58-5.991-2.363-9.283-2.363v10c1.652 0 3.109.379 4.457 1.122l4.826-8.759zM13.655-4.53c-3.292 0-6.414.783-9.276 2.369l4.846 8.747c1.33-.737 2.777-1.116 4.43-1.116v-10zM4.379-2.16C1.544-.591-.757 1.59-2.44 4.345l8.535 5.21c.757-1.239 1.771-2.217 3.129-2.969L4.379-2.161zM-2.44 4.345C-4.143 7.136-5 10.221-5 13.495H5c0-1.457.362-2.736 1.096-3.94l-8.535-5.21zM-5 13.495c0 3.275.857 6.36 2.56 9.15l8.536-5.209C5.362 16.233 5 14.954 5 13.496H-5zm2.56 9.15c1.683 2.756 3.984 4.937 6.819 6.508l4.846-8.748c-1.358-.752-2.372-1.73-3.129-2.969l-8.535 5.21zm6.819 6.508c2.865 1.587 5.994 2.368 9.293 2.368v-10c-1.668 0-3.12-.38-4.447-1.116l-4.846 8.748zm9.293 2.368c4.537 0 8.653-1.455 12.14-4.337l-6.37-7.709c-1.663 1.374-3.517 2.046-5.77 2.046v10zm5.494-4.582l10.596 10.16 6.921-7.218-10.596-10.16-6.92 7.218zm10.608 10.17a6.105 6.105 0 004.235 1.706v-10c.479 0 .992.091 1.495.3.497.206.884.485 1.168.755l-6.898 7.24zm4.235 1.706a6.076 6.076 0 004.218-1.689l-6.898-7.24a3.885 3.885 0 011.228-.787 3.902 3.902 0 011.452-.284v10zm4.218-1.689a5.995 5.995 0 001.876-4.369h-10c0-.484.092-1.032.33-1.582.239-.548.567-.976.896-1.289l6.898 7.24zm1.876-4.369a5.968 5.968 0 00-1.86-4.353l-6.897 7.24a4.028 4.028 0 01-1.244-2.887h10zM13.671 19.47c-1.274 0-2.36-.29-3.353-.846l-4.881 8.728c2.539 1.42 5.315 2.118 8.234 2.118v-10zm-3.353-.846c-1.036-.58-1.793-1.316-2.358-2.243l-8.54 5.204c1.487 2.437 3.52 4.37 6.017 5.767l4.881-8.728zm-2.358-2.243a5.353 5.353 0 01-.808-2.885h-10c0 2.89.764 5.62 2.269 8.089L7.96 16.38zm-.808-2.885c0-1.06.262-1.989.808-2.885l-8.54-5.204a15.349 15.349 0 00-2.268 8.089h10zm.808-2.885c.565-.927 1.322-1.664 2.358-2.244L5.438-.36C2.942 1.036.908 2.969-.578 5.407L7.96 10.61zm2.358-2.244c.997-.557 2.078-.845 3.336-.845v-10c-2.913 0-5.682.7-8.217 2.118l4.881 8.727zm3.336-.845c1.257 0 2.338.288 3.335.845L21.872-.36c-2.535-1.418-5.305-2.118-8.217-2.118v10zm3.335.845c1.036.58 1.794 1.317 2.359 2.244l8.539-5.204c-1.486-2.438-3.52-4.371-6.016-5.767L16.99 8.367zm2.359 2.244c.546.896.807 1.824.807 2.885h10c0-2.891-.764-5.62-2.268-8.09l-8.54 5.205zm.807 2.885c0 .438-.052.869-.16 1.3l9.705 2.413c.303-1.218.455-2.458.455-3.713h-10zm-.16 1.3c-.113.457-.265.85-.446 1.196l8.854 4.647c.571-1.088 1-2.236 1.297-3.43l-9.705-2.412zm-.446 1.196c-.216.41-.477.807-.793 1.192l7.74 6.333a17.047 17.047 0 001.907-2.878l-8.854-4.647zm-.793 1.192a5.353 5.353 0 01-.922.887l6.029 7.978a15.359 15.359 0 002.632-2.532l-7.738-6.333zm-.922.887c-.39.294-.806.547-1.255.761l4.3 9.028a17.235 17.235 0 002.984-1.81l-6.029-7.98zm-1.255.761a6.53 6.53 0 01-1.377.467l2.201 9.755a16.519 16.519 0 003.477-1.194l-4.3-9.028zm-1.377.467a6.92 6.92 0 01-1.531.17v10c1.258 0 2.505-.138 3.732-.415l-2.2-9.755z" fill="#fff" mask="url(#sa)"/></svg>