<?xml version="1.0" encoding="utf-8"?><svg width="40" height="40" fill="none" xmlns="http://www.w3.org/2000/svg" viewBox="0 0 40 40"><path d="M24.305 6.089a.625.625 0 01.765-.443 13.149 13.149 0 019.284 9.284.625.625 0 11-1.208.322 11.897 11.897 0 00-8.399-8.398.625.625 0 01-.442-.765zm-.852 5.595a6.887 6.887 0 014.863 4.863.625.625 0 101.207-.323 8.14 8.14 0 00-5.747-5.747.623.623 0 00-.708.918.625.625 0 00.385.29zm12.108 15.594a8.135 8.135 0 01-8.061 7.097c-12.062 0-21.875-9.813-21.875-21.875a8.135 8.135 0 017.097-8.06 1.878 1.878 0 011.95 1.123l3.139 7.324a1.872 1.872 0 01-.155 1.766l-2.6 3.972a.616.616 0 00-.045.603 12.584 12.584 0 005.812 5.786.614.614 0 00.605-.05l3.912-2.608a1.87 1.87 0 011.779-.164l7.318 3.137a1.878 1.878 0 011.123 1.949zm-1.617-.8l-7.318-3.137a.624.624 0 00-.593.054l-3.912 2.61a1.87 1.87 0 01-1.841.135 13.841 13.841 0 01-6.392-6.364 1.87 1.87 0 01.123-1.836l2.599-3.971a.624.624 0 00.052-.589l-3.14-7.324a.625.625 0 00-.643-.376 6.883 6.883 0 00-6.004 6.82c0 11.373 9.252 20.625 20.625 20.625a6.883 6.883 0 006.82-6.004.621.621 0 00-.376-.643z" fill="#000"/></svg>