<?xml version="1.0" encoding="utf-8"?><svg width="95" height="160" fill="none" xmlns="http://www.w3.org/2000/svg" viewBox="0 0 95 160"><path d="M.435 156.958c-.14-8.304 1.155-16.685 1.891-24.874.053-1.062 1.547-1.575 2.3-1.208 4.33 2.271 9.034 4.412 12.5 7.815l.188-.064c23.362-6.152 38.722-33.151 49.53-52.737 12.531-22.475 22.16-47.921 20.544-73.887-.654-3.116-1.372-6.42-2.463-9.595-.514-1.494 1.54-2.2 2.24-.77l.579 1.68c.747-.256 1.5.112 1.82 1.046.52 2.118.666 4.365.999 6.548 15.904 51.125-17.765 117.203-65.978 137.327 2.709 2.41 5.294 5.071 8.188 7.418 1.384.986.339 2.807-1.033 3.069-9.787 1.903-19.732.31-29.478-.098-.811.07-1.815-.421-1.827-1.67zm27.594-1.132c-1.956-2.043-3.537-4.214-5.679-6.192-.695-.806-.39-1.745.105-2.125-.192-.56.053-1.062.549-1.441 42.067-22.814 67.834-65.71 67.092-111.607-3.192 19.265-11.76 38.081-20.91 54.592-6.695 12.116-14.27 23.491-23.229 33.879-7.044 8.06-16.458 16.517-27.634 16.809 1.074 1.302-.91 2.819-2.043 1.955-3.519-2.34-6.974-4.493-10.551-6.396-.625 6.688-1.436 13.441-1.436 20.123 7.809.24 15.874 1.226 23.736.403z" fill="#fff"/></svg>