<?xml version="1.0" encoding="utf-8"?><svg width="60" height="60" fill="none" xmlns="http://www.w3.org/2000/svg" viewBox="0 0 60 60"><g clip-path="url(#rclip0)" fill="#2F3235"><path d="M56.063 30.008c1.262-2.517 2.256-5.047 2.946-7.54 2.163-7.812 1.116-14.353-2.95-18.418C51.994-.015 45.453-1.062 37.642 1.1c-2.493.69-5.023 1.685-7.54 2.947-3.131-1.572-6.267-2.722-9.288-3.384C13.797-.875 7.882.328 4.16 4.05 1.77 6.44.385 9.796.153 13.758c-.208 3.564.514 7.655 2.089 11.868a5.567 5.567 0 000 8.748C.667 38.588-.055 42.678.153 46.242c.232 3.962 1.618 7.319 4.007 9.708 2.668 2.668 6.41 4.044 10.932 4.044.908 0 1.847-.056 2.816-.167 3.877-.448 8.019-1.768 12.2-3.87 2.515 1.26 5.043 2.253 7.534 2.943 2.658.736 5.17 1.1 7.486 1.1 4.49 0 8.25-1.369 10.931-4.05 3.723-3.722 4.926-9.637 3.388-16.655-.663-3.02-1.813-6.156-3.384-9.288zM38.112 2.797c7.173-1.987 13.105-1.1 16.702 2.498 3.597 3.597 4.484 9.528 2.498 16.702a39.052 39.052 0 01-2.27 6.082c-1.703-3.054-3.798-6.08-6.224-8.966a5.547 5.547 0 001.188-3.435 5.52 5.52 0 00-1.172-3.42l-1.39 1.08c.525.674.802 1.483.802 2.34a3.82 3.82 0 01-3.815 3.815 3.82 3.82 0 01-3.815-3.815 3.82 3.82 0 015.761-3.282l.9-1.514a5.573 5.573 0 00-6.281.409c-2.887-2.427-5.913-4.521-8.966-6.224a39.091 39.091 0 016.082-2.27zM5.405 5.295c4.76-4.76 13.489-4.583 22.777-.233-4.534 2.528-8.981 5.914-13.039 9.971-3.008 3.008-5.656 6.24-7.88 9.613a5.626 5.626 0 00-3.467.11C.746 16.442 1.316 9.383 5.405 5.296zm9.733 52.93c-3.983 0-7.37-1.157-9.734-3.521-4.087-4.088-4.66-11.147-1.608-19.462a5.55 5.55 0 003.465.107c2.224 3.375 4.873 6.607 7.882 9.616 4.056 4.056 8.502 7.44 13.035 9.97-4.656 2.178-9.136 3.291-13.04 3.29zm14.966-4.249c-4.755-2.498-9.451-5.992-13.716-10.256-2.865-2.865-5.392-5.936-7.523-9.139a5.572 5.572 0 002.382-5.078l-1.754.155a3.82 3.82 0 01-3.8 4.156A3.82 3.82 0 011.878 30a3.82 3.82 0 013.815-3.815c1.453 0 2.761.808 3.413 2.107l1.574-.789a5.582 5.582 0 00-1.811-2.091c2.13-3.2 4.656-6.27 7.52-9.133 4.264-4.265 8.963-7.76 13.72-10.258 3.237 1.704 6.513 3.901 9.687 6.562a5.541 5.541 0 00-.941 3.096 5.582 5.582 0 005.576 5.575 5.54 5.54 0 003.096-.94c2.66 3.173 4.857 6.45 6.562 9.687-2.498 4.757-5.994 9.455-10.258 13.72-.47.469-.952.935-1.439 1.391a5.55 5.55 0 00-3.596-1.319 5.523 5.523 0 00-3.42 1.172l1.08 1.39a3.78 3.78 0 012.34-.801 3.82 3.82 0 013.815 3.815 3.82 3.82 0 01-3.815 3.815 3.82 3.82 0 01-3.282-5.761l-1.514-.9a5.572 5.572 0 00-.206 5.307 51.097 51.097 0 01-3.69 2.147zm24.71.728c-3.597 3.597-9.529 4.484-16.702 2.498a39.08 39.08 0 01-6.078-2.269 53.973 53.973 0 002.78-1.666 5.56 5.56 0 003.982 1.677 5.582 5.582 0 005.576-5.576c0-1.07-.304-2.07-.829-2.921.52-.486 1.033-.982 1.532-1.482 4.057-4.057 7.443-8.505 9.972-13.039 4.35 9.289 4.527 18.017-.233 22.778z"/><path d="M44.547 39.098h-1.819V34.66a4.419 4.419 0 00-3.207-4.237l-.658-.185-.478 1.695.658.186a2.65 2.65 0 011.924 2.541v4.437h-3.17V36.69h-1.76v2.407h-7.924v1.76h16.434v-1.76z"/><path d="M33.022 30.42l3.67 1.036.478-1.695-3.597-1.014v-2.339a6.161 6.161 0 002.7-5.095v-2.582a6.17 6.17 0 00-6.163-6.163 6.17 6.17 0 00-6.163 6.163v2.582a6.162 6.162 0 002.7 5.095v2.339l-5.949 1.677a4.419 4.419 0 00-3.207 4.237v4.437h-1.82v1.76h10.683v-1.76h-2.172V36.69h-1.76v2.407h-3.17V34.66c0-1.177.792-2.222 1.924-2.542l6.022-1.698a3.932 3.932 0 002.912 1.281c1.123 0 2.17-.47 2.912-1.281zM30.11 14.33a4.407 4.407 0 014.402 4.402v.98l-1.85-2.447H25.96a4.409 4.409 0 014.15-2.935zm-4.402 6.985v-2.29h6.077l2.581 3.414a4.41 4.41 0 01-4.256 3.277 4.407 4.407 0 01-4.402-4.401zm2.7 7.815v-1.894a6.127 6.127 0 003.404 0v1.894a2.18 2.18 0 01-1.702.812 2.18 2.18 0 01-1.702-.812z"/><path d="M34.76 34.57l-2.48-.7.478-1.694 2.48.7-.478 1.694zM38.625 33.828l-.478 1.695-1.695-.478.479-1.695 1.694.478zM43.55 14.799h1.76v1.76h-1.76V14.8zM37.916 48.489h1.76v1.76h-1.76v-1.76zM4.813 29.12h1.76v1.76h-1.76v-1.76z"/></g><defs><clipPath id="rclip0"><path fill="#fff" d="M0 0h60v60H0z"/></clipPath></defs></svg>