<?xml version="1.0" encoding="utf-8"?><svg viewBox="0 0 156 160" xmlns="http://www.w3.org/2000/svg" xmlns:xlink="http://www.w3.org/1999/xlink"><style>:root>svg{display:none}:root>svg:target{display:block}</style><svg fill="none" viewBox="0 0 8 14" id="arrow-right" xmlns="http://www.w3.org/2000/svg"><path d="M0 12l5-5-5-5 1-2 7 7-7 7-1-2z" fill="#fff"/></svg><svg fill="none" viewBox="0 0 35 35" id="arrow-right-alt-icon" xmlns="http://www.w3.org/2000/svg"><path d="M24.5 8.75l-8.75 8.75 8.75 8.75-1.75 3.5L10.5 17.5 22.75 5.25l1.75 3.5z" fill="#fff"/></svg><svg fill="none" viewBox="0 0 8 14" id="arrow-right-black" xmlns="http://www.w3.org/2000/svg"><path d="M0 12l5-5-5-5 1-2 7 7-7 7-1-2z" fill="#000" fill-opacity=".7"/></svg><svg fill="none" viewBox="0 0 13 10" id="check-green" xmlns="http://www.w3.org/2000/svg"><path fill-rule="evenodd" clip-rule="evenodd" d="M12.336.998L5.427 9.637 0 5.114l1.024-1.23 4.173 3.478L11.088 0l1.248.998z" fill="#2EB12B"/></svg><svg fill="none" viewBox="0 0 13 10" id="check-white" xmlns="http://www.w3.org/2000/svg"><path fill-rule="evenodd" clip-rule="evenodd" d="M12.336.998L5.427 9.637 0 5.114l1.024-1.23 4.173 3.478L11.088 0l1.248.998z" fill="#fff"/></svg><svg fill="none" viewBox="0 0 18 18" id="cross-icon" xmlns="http://www.w3.org/2000/svg"><path d="M17 1L1 17m16 0L1 1l16 16z" stroke="#FF2626" stroke-width="2" stroke-linecap="round"/></svg><svg fill="none" viewBox="0 0 156 156" id="discount-icon" xmlns="http://www.w3.org/2000/svg"><g clip-path="url(#gclip0)" fill="#fff"><path d="M145.627 80.02a4.57 4.57 0 010-4.04l5.818-11.903a13.542 13.542 0 00-5.843-17.983l-11.703-6.21a4.57 4.57 0 01-2.375-3.269l-2.289-13.05a13.543 13.543 0 00-15.298-11.114l-13.117 1.856a4.572 4.572 0 01-3.843-1.25l-9.522-9.21a13.542 13.542 0 00-18.91 0l-9.521 9.212a4.573 4.573 0 01-3.843 1.248l-13.118-1.855a13.541 13.541 0 00-15.298 11.115l-2.288 13.048a4.573 4.573 0 01-2.375 3.27l-11.703 6.21a13.543 13.543 0 00-5.844 17.983l5.818 11.902a4.571 4.571 0 010 4.041L4.555 91.924a13.542 13.542 0 005.843 17.983l11.703 6.209a4.573 4.573 0 012.376 3.269l2.288 13.05a13.535 13.535 0 0013.35 11.252c.642 0 1.294-.045 1.948-.138l13.118-1.855a4.57 4.57 0 013.843 1.248l9.522 9.212A13.55 13.55 0 0078 156c3.401 0 6.804-1.282 9.455-3.846l9.522-9.212a4.577 4.577 0 013.843-1.248l13.117 1.855a13.541 13.541 0 0015.298-11.115l2.289-13.048a4.574 4.574 0 012.375-3.27l11.703-6.209a13.542 13.542 0 005.843-17.984l-5.818-11.902zm-4.242 21.939l-11.703 6.209a13.513 13.513 0 00-7.02 9.663l-2.289 13.049a4.582 4.582 0 01-5.176 3.76l-13.117-1.855a13.506 13.506 0 00-11.36 3.69l-9.521 9.211a4.582 4.582 0 01-6.398 0l-9.522-9.211a13.5 13.5 0 00-9.422-3.828c-.642 0-1.289.046-1.937.137l-13.117 1.856a4.583 4.583 0 01-5.176-3.761l-2.289-13.049a13.509 13.509 0 00-7.02-9.662l-11.703-6.21a4.581 4.581 0 01-1.977-6.084l5.818-11.902a13.511 13.511 0 000-11.944l-5.818-11.902a4.582 4.582 0 011.977-6.084l11.703-6.21a13.512 13.512 0 007.02-9.662l2.289-13.05a4.582 4.582 0 015.175-3.76l13.118 1.856a13.512 13.512 0 0011.359-3.691l9.522-9.211a4.582 4.582 0 016.397 0l9.522 9.211a13.51 13.51 0 0011.359 3.69l13.118-1.855a4.582 4.582 0 015.175 3.76l2.289 13.05a13.51 13.51 0 007.021 9.662l11.703 6.21a4.582 4.582 0 011.977 6.084l-5.819 11.902a13.511 13.511 0 000 11.943l5.819 11.902a4.583 4.583 0 01-1.977 6.086z"/><path d="M110.87 45.129a4.499 4.499 0 00-6.362 0l-59.38 59.38a4.498 4.498 0 106.362 6.362l59.38-59.38a4.499 4.499 0 000-6.362zM60.005 37.512c-9.095 0-16.495 7.4-16.495 16.495 0 9.096 7.4 16.495 16.495 16.495 9.096 0 16.495-7.4 16.495-16.495s-7.4-16.495-16.495-16.495zm0 23.993c-4.134 0-7.498-3.364-7.498-7.498s3.364-7.498 7.498-7.498 7.498 3.364 7.498 7.498-3.364 7.498-7.498 7.498zM95.995 85.498c-9.095 0-16.495 7.4-16.495 16.495 0 9.096 7.4 16.496 16.495 16.496 9.096 0 16.496-7.4 16.496-16.496 0-9.095-7.4-16.495-16.496-16.495zm0 23.993c-4.134 0-7.498-3.363-7.498-7.498 0-4.134 3.364-7.497 7.498-7.497 4.135 0 7.498 3.363 7.498 7.497 0 4.135-3.363 7.498-7.498 7.498z"/></g><defs><clipPath id="gclip0"><path fill="#fff" d="M0 0h156v156H0z"/></clipPath></defs></svg><svg fill="none" viewBox="0 0 40 40" id="email-icon" xmlns="http://www.w3.org/2000/svg"><path d="M8.333 8.333H30a5 5 0 015 5v15a5 5 0 01-5 5H8.333a5 5 0 01-5-5v-15a5 5 0 015-5zm0 1.667c-.813 0-1.56.292-2.138.777L19.166 19.2l12.972-8.423A3.32 3.32 0 0030 10H8.333zm10.833 11.187L5.223 12.133c-.148.383-.224.79-.223 1.2v15a3.333 3.333 0 003.333 3.334H30a3.333 3.333 0 003.333-3.334v-15c0-.423-.078-.828-.223-1.2l-13.944 9.052v.002z" fill="#fff"/></svg><svg fill="none" viewBox="0 0 40 40" id="email-icon--black" xmlns="http://www.w3.org/2000/svg"><path d="M8.333 8.333H30a5 5 0 015 5v15a5 5 0 01-5 5H8.333a5 5 0 01-5-5v-15a5 5 0 015-5zm0 1.667c-.813 0-1.56.292-2.138.777L19.166 19.2l12.972-8.423A3.32 3.32 0 0030 10H8.333zm10.833 11.187L5.223 12.133c-.148.383-.224.79-.223 1.2v15a3.333 3.333 0 003.333 3.334H30a3.333 3.333 0 003.333-3.334v-15c0-.423-.078-.828-.223-1.2l-13.944 9.052v.002z" fill="#000"/></svg><svg fill="none" viewBox="0 0 60 60" id="excellent-icon-1" xmlns="http://www.w3.org/2000/svg"><path d="M57.557 23.513L45 18.133V7.5a.938.938 0 00-.275-.663L40.038 2.15a.938.938 0 00-.663-.275H4.687a2.813 2.813 0 00-2.812 2.813v50.624a2.812 2.812 0 002.813 2.813h37.5A2.812 2.812 0 0045 55.312v-2.33l4.88-3.482a19.725 19.725 0 008.245-16.024v-9.101a.938.938 0 00-.568-.862zM43.125 7.888v.55h-4.688V3.75h.55l4.138 4.138zm-.938 48.362h-37.5a.938.938 0 01-.937-.938V4.688a.937.937 0 01.938-.938h31.875v5.625a.938.938 0 00.937.938h5.625v7.82l-12.557 5.38a.938.938 0 00-.568.862v9.101A19.725 19.725 0 0038.244 49.5l4.881 3.482v2.33a.938.938 0 01-.938.938zM56.25 33.476a17.848 17.848 0 01-7.459 14.495l-4.728 3.377-4.73-3.375a17.847 17.847 0 01-7.458-14.497v-8.483l12.188-5.223 12.187 5.223v8.483z" fill="#2F3235"/><path d="M43.714 22.567l-9.375 3.75a.938.938 0 00-.589.87v5.916a15.862 15.862 0 005.981 12.445l3.746 3a.938.938 0 001.172 0l3.745-3a15.86 15.86 0 005.981-12.445v-5.916a.937.937 0 00-.589-.87l-9.375-3.75a.944.944 0 00-.697 0zm8.786 5.255v5.281a13.99 13.99 0 01-5.277 10.98l-3.16 2.53-3.16-2.532a13.991 13.991 0 01-5.278-10.978v-5.28l8.438-3.376 8.437 3.375zM6.563 18.75h26.25a.938.938 0 00.937-.938V6.563a.938.938 0 00-.938-.937H6.563a.937.937 0 00-.937.938v11.25a.937.937 0 00.938.937zM7.5 7.5h24.375v9.375H7.5V7.5zM27.188 41.25H6.563a.938.938 0 00-.938.938v11.25a.937.937 0 00.938.937h20.625a.938.938 0 00.937-.938v-11.25a.938.938 0 00-.938-.937zM26.25 52.5H7.5v-9.375h18.75V52.5zM5.625 23.438h22.5v1.875h-22.5v-1.875zM5.625 29.063h22.5v1.875h-22.5v-1.875zM5.625 34.688h22.5v1.874h-22.5v-1.874z" fill="#2F3235"/></svg><svg fill="none" viewBox="0 0 60 60" id="excellent-icon-2" xmlns="http://www.w3.org/2000/svg"><g clip-path="url(#kclip0)" fill="#2F3235"><path d="M12.54 22.266c0 9.692 7.884 17.578 17.577 17.578 9.693 0 17.578-7.886 17.578-17.578 0-9.693-7.885-17.578-17.578-17.578S12.54 12.572 12.54 22.265zM30.116 7.03c8.4 0 15.235 6.834 15.235 15.235 0 8.4-6.834 15.234-15.235 15.234-8.4 0-15.234-6.834-15.234-15.234S21.717 7.03 30.117 7.03z"/><path d="M19.265 20.177l4.542 4.475-1.045 6.29a1.172 1.172 0 001.696 1.233l5.66-2.94 5.658 2.94a1.171 1.171 0 001.696-1.233l-1.045-6.29 4.542-4.476a1.171 1.171 0 00-.648-1.993l-6.304-.949-2.852-5.704a1.171 1.171 0 00-2.096 0l-2.852 5.704-6.304.949a1.172 1.172 0 00-.648 1.994zm7.902-.716c.378-.057.703-.293.874-.634l2.076-4.153 2.076 4.153c.17.34.497.577.874.634l4.588.69-3.306 3.258c-.272.268-.396.65-.334 1.027l.76 4.578-4.118-2.139a1.169 1.169 0 00-1.08 0l-4.119 2.14.76-4.579a1.171 1.171 0 00-.333-1.027l-3.306-3.257 4.588-.691zM31.29 1.172a1.172 1.172 0 11-2.344 0 1.172 1.172 0 012.343 0z"/><path d="M24.594.69C14.736 3.208 7.852 12.08 7.852 22.267c0 6.327 2.66 12.288 7.33 16.51l-7.06 12.442a1.172 1.172 0 001.257 1.726l8.017-1.665 2.818 7.941a1.172 1.172 0 002.123.187l7.78-13.678 7.78 13.678a1.172 1.172 0 002.123-.187l2.818-7.94 8.017 1.664a1.173 1.173 0 001.258-1.726l-7.06-12.442a22.196 22.196 0 007.33-16.51c0-10.187-6.885-19.059-16.743-21.575a1.172 1.172 0 10-.58 2.27c8.82 2.252 14.98 10.19 14.98 19.305 0 11.093-9.01 19.922-19.923 19.922-10.92 0-19.922-8.837-19.922-19.922 0-9.115 6.16-17.053 14.979-19.304a1.173 1.173 0 00-.58-2.271zm-3.027 55.332l-2.303-6.49a1.172 1.172 0 00-1.343-.755l-6.483 1.346 5.587-9.847a22.312 22.312 0 0011.127 4.168l-6.585 11.578zm20.746-7.245a1.172 1.172 0 00-1.343.755l-2.302 6.49-6.586-11.578a22.314 22.314 0 0011.127-4.169l5.588 9.848-6.484-1.346z"/></g><defs><clipPath id="kclip0"><path fill="#fff" d="M0 0h60v60H0z"/></clipPath></defs></svg><svg fill="none" viewBox="0 0 60 60" id="excellent-icon-3" xmlns="http://www.w3.org/2000/svg"><g clip-path="url(#lclip0)" fill="#2F3235"><path d="M56.063 30.008c1.262-2.517 2.256-5.047 2.946-7.54 2.163-7.812 1.116-14.353-2.95-18.418C51.994-.015 45.453-1.062 37.642 1.1c-2.493.69-5.023 1.685-7.54 2.947-3.131-1.572-6.267-2.722-9.288-3.384C13.797-.875 7.882.328 4.16 4.05 1.77 6.44.385 9.796.153 13.758c-.208 3.564.514 7.655 2.089 11.868a5.567 5.567 0 000 8.748C.667 38.588-.055 42.678.153 46.242c.232 3.962 1.618 7.319 4.007 9.708 2.668 2.668 6.41 4.044 10.932 4.044.908 0 1.847-.056 2.816-.167 3.877-.448 8.019-1.768 12.2-3.87 2.515 1.26 5.043 2.253 7.534 2.943 2.658.736 5.17 1.1 7.486 1.1 4.49 0 8.25-1.369 10.931-4.05 3.723-3.722 4.926-9.637 3.388-16.655-.663-3.02-1.813-6.156-3.384-9.288zM38.112 2.797c7.173-1.987 13.105-1.1 16.702 2.498 3.597 3.597 4.484 9.528 2.498 16.702a39.052 39.052 0 01-2.27 6.082c-1.703-3.054-3.798-6.08-6.224-8.966a5.547 5.547 0 001.188-3.435 5.52 5.52 0 00-1.172-3.42l-1.39 1.08c.525.674.802 1.483.802 2.34a3.82 3.82 0 01-3.815 3.815 3.82 3.82 0 01-3.815-3.815 3.82 3.82 0 015.761-3.282l.9-1.514a5.573 5.573 0 00-6.281.409c-2.887-2.427-5.913-4.521-8.966-6.224a39.091 39.091 0 016.082-2.27zM5.405 5.295c4.76-4.76 13.489-4.583 22.777-.233-4.534 2.528-8.981 5.914-13.039 9.971-3.008 3.008-5.656 6.24-7.88 9.613a5.626 5.626 0 00-3.467.11C.746 16.442 1.316 9.383 5.405 5.296zm9.733 52.93c-3.983 0-7.37-1.157-9.734-3.521-4.087-4.088-4.66-11.147-1.608-19.462a5.55 5.55 0 003.465.107c2.224 3.375 4.873 6.607 7.882 9.616 4.056 4.056 8.502 7.44 13.035 9.97-4.656 2.178-9.136 3.291-13.04 3.29zm14.966-4.249c-4.755-2.498-9.451-5.992-13.716-10.256-2.865-2.865-5.392-5.936-7.523-9.139a5.572 5.572 0 002.382-5.078l-1.754.155a3.82 3.82 0 01-3.8 4.156A3.82 3.82 0 011.878 30a3.82 3.82 0 013.815-3.815c1.453 0 2.761.808 3.413 2.107l1.574-.789a5.582 5.582 0 00-1.811-2.091c2.13-3.2 4.656-6.27 7.52-9.133 4.264-4.265 8.963-7.76 13.72-10.258 3.237 1.704 6.513 3.901 9.687 6.562a5.541 5.541 0 00-.941 3.096 5.582 5.582 0 005.576 5.575 5.54 5.54 0 003.096-.94c2.66 3.173 4.857 6.45 6.562 9.687-2.498 4.757-5.994 9.455-10.258 13.72-.47.469-.952.935-1.439 1.391a5.55 5.55 0 00-3.596-1.319 5.523 5.523 0 00-3.42 1.172l1.08 1.39a3.78 3.78 0 012.34-.801 3.82 3.82 0 013.815 3.815 3.82 3.82 0 01-3.815 3.815 3.82 3.82 0 01-3.282-5.761l-1.514-.9a5.572 5.572 0 00-.206 5.307 51.097 51.097 0 01-3.69 2.147zm24.71.728c-3.597 3.597-9.529 4.484-16.702 2.498a39.08 39.08 0 01-6.078-2.269 53.973 53.973 0 002.78-1.666 5.56 5.56 0 003.982 1.677 5.582 5.582 0 005.576-5.576c0-1.07-.304-2.07-.829-2.921.52-.486 1.033-.982 1.532-1.482 4.057-4.057 7.443-8.505 9.972-13.039 4.35 9.289 4.527 18.017-.233 22.778z"/><path d="M44.547 39.098h-1.819V34.66a4.419 4.419 0 00-3.207-4.237l-.658-.185-.478 1.695.658.186a2.65 2.65 0 011.924 2.541v4.437h-3.17V36.69h-1.76v2.407h-7.924v1.76h16.434v-1.76z"/><path d="M33.022 30.42l3.67 1.036.478-1.695-3.597-1.014v-2.339a6.161 6.161 0 002.7-5.095v-2.582a6.17 6.17 0 00-6.163-6.163 6.17 6.17 0 00-6.163 6.163v2.582a6.162 6.162 0 002.7 5.095v2.339l-5.949 1.677a4.419 4.419 0 00-3.207 4.237v4.437h-1.82v1.76h10.683v-1.76h-2.172V36.69h-1.76v2.407h-3.17V34.66c0-1.177.792-2.222 1.924-2.542l6.022-1.698a3.932 3.932 0 002.912 1.281c1.123 0 2.17-.47 2.912-1.281zM30.11 14.33a4.407 4.407 0 014.402 4.402v.98l-1.85-2.447H25.96a4.409 4.409 0 014.15-2.935zm-4.402 6.985v-2.29h6.077l2.581 3.414a4.41 4.41 0 01-4.256 3.277 4.407 4.407 0 01-4.402-4.401zm2.7 7.815v-1.894a6.127 6.127 0 003.404 0v1.894a2.18 2.18 0 01-1.702.812 2.18 2.18 0 01-1.702-.812z"/><path d="M34.76 34.57l-2.48-.7.478-1.694 2.48.7-.478 1.694zM38.625 33.828l-.478 1.695-1.695-.478.479-1.695 1.694.478zM43.55 14.799h1.76v1.76h-1.76V14.8zM37.916 48.489h1.76v1.76h-1.76v-1.76zM4.813 29.12h1.76v1.76h-1.76v-1.76z"/></g><defs><clipPath id="lclip0"><path fill="#fff" d="M0 0h60v60H0z"/></clipPath></defs></svg><svg fill="none" viewBox="0 0 60 60" id="excellent-icon-4" xmlns="http://www.w3.org/2000/svg"><g clip-path="url(#mclip0)" fill="#2F3235"><path d="M59 35h-3.068L54 6.932A1 1 0 0053 6h-6a1 1 0 00-1 .932L44.065 35H42v-6a1 1 0 00-1.625-.78L32 34.92V29a1 1 0 00-1.625-.78L22 34.92V29a1 1 0 00-1.625-.78L12 34.92V29a1 1 0 00-1.515-.857l-10 6A1 1 0 000 35v24a1 1 0 001 1h58a1 1 0 001-1V36a1 1 0 00-1-1zM47.932 8h4.133l1.862 27h-7.857l1.862-27zM34 58V46h6v12h-6zm24 0H42V45a1 1 0 00-1-1h-8a1 1 0 00-1 1v13H2V35.566l8-4.8V37a1 1 0 001.625.781l8.375-6.7V37a1 1 0 001.625.782l8.375-6.7V37a1 1 0 001.625.782l8.374-6.7V36a1 1 0 001 1h17v21zM33.993 2c.364.195.692.45.972.752A3.499 3.499 0 0037.2 4a3.65 3.65 0 002.356-1.3c.253-.265.536-.5.844-.7.206.01.745.514 1.035.785A3.349 3.349 0 0043.6 4a3.904 3.904 0 002.512-1.378c.245-.23.616-.579.688-.621.537 0 .66.177.99.654A2.529 2.529 0 0050 4a1 1 0 000-2c-.2 0-.24-.013-.564-.483A2.955 2.955 0 0046.8 0a3.21 3.21 0 00-2.058 1.164c-.332.314-.889.837-1.1.841a4.07 4.07 0 01-.842-.678A3.711 3.711 0 0040.4 0a3.467 3.467 0 00-2.211 1.236c-.28.301-.605.559-.961.765a3.89 3.89 0 01-.9-.71A3.627 3.627 0 0033.999 0a1 1 0 00-.006 2z"/><path d="M11 46H7a1 1 0 00-1 1v6a1 1 0 001 1h4a1 1 0 001-1v-6a1 1 0 00-1-1zm-1 6H8v-4h2v4zM19 46h-4a1 1 0 00-1 1v6a1 1 0 001 1h4a1 1 0 001-1v-6a1 1 0 00-1-1zm-1 6h-2v-4h2v4zM27 46h-4a1 1 0 00-1 1v6a1 1 0 001 1h4a1 1 0 001-1v-6a1 1 0 00-1-1zm-1 6h-2v-4h2v4z"/></g><defs><clipPath id="mclip0"><path fill="#fff" d="M0 0h60v60H0z"/></clipPath></defs></svg><svg fill="none" viewBox="0 0 24 24" id="facebook-icon" xmlns="http://www.w3.org/2000/svg"><path d="M13.397 20.997v-8.196h2.765l.411-3.209h-3.176V7.548c0-.926.258-1.56 1.587-1.56h1.684V3.127c-.82-.088-1.643-.13-2.467-.127-2.444 0-4.122 1.492-4.122 4.231v2.355H7.332v3.209h2.753v8.202h3.312z" fill="#fff"/></svg><svg fill="none" viewBox="0 0 12 12" id="home-icon" xmlns="http://www.w3.org/2000/svg"><path d="M6.358.29a.583.583 0 00-.717 0l-4.8 3.732a1.75 1.75 0 00-.675 1.383v5.262a1.167 1.167 0 001.167 1.166h2.333a1.167 1.167 0 001.167-1.166v-3.5h2.333v3.5a1.167 1.167 0 001.167 1.166h2.333a1.167 1.167 0 001.167-1.166V5.405a1.75 1.75 0 00-.677-1.383L6.358.29z" fill="#000"/></svg><svg fill="none" viewBox="0 0 24 24" id="instagram-icon" xmlns="http://www.w3.org/2000/svg"><path d="M15.24 12c0-1.8-1.44-3.24-3.24-3.24-1.8 0-3.24 1.44-3.24 3.24 0 1.8 1.44 3.24 3.24 3.24 1.8 0 3.24-1.44 3.24-3.24zm1.68 0c0 2.76-2.16 4.92-4.92 4.92S7.08 14.76 7.08 12 9.24 7.08 12 7.08s4.92 2.16 4.92 4.92zm1.32-5.16c0 .72-.48 1.2-1.2 1.2s-1.2-.48-1.2-1.2.48-1.2 1.2-1.2 1.2.6 1.2 1.2zM12 4.08c-1.44 0-4.44-.12-5.64.36-.84.36-1.56 1.08-1.8 1.92-.48 1.2-.36 4.2-.36 5.64 0 1.44-.12 4.44.36 5.64.24.84.96 1.56 1.8 1.8 1.2.48 4.32.36 5.64.36 1.32 0 4.44.12 5.64-.36a3.31 3.31 0 001.8-1.8c.48-1.32.36-4.32.36-5.64 0-1.32.12-4.44-.36-5.64-.24-.84-.96-1.56-1.8-1.8-1.2-.6-4.2-.48-5.64-.48zM21.6 12v3.96c0 1.44-.48 2.88-1.56 4.08-1.08 1.08-2.52 1.56-4.08 1.56H8.04c-1.44 0-2.88-.48-4.08-1.56a6.153 6.153 0 01-1.56-4.08V8.04c0-1.56.6-3 1.56-4.08C5.16 3 6.6 2.4 8.04 2.4h7.92c1.44 0 2.88.48 4.08 1.56a6.153 6.153 0 011.56 4.08V12z" fill="#fff"/></svg><svg fill="none" viewBox="0 0 30 30" id="location-icon" xmlns="http://www.w3.org/2000/svg"><path d="M15 1.875a11.25 11.25 0 0111.25 11.25c0 5.376-3.628 10.324-10.748 14.854a.938.938 0 01-1.005 0C7.379 23.449 3.75 18.5 3.75 13.125A11.25 11.25 0 0115 1.875zm0 1.875a9.375 9.375 0 00-9.375 9.375c0 4.36 2.887 8.546 8.775 12.547l.6.4.6-.4c5.888-4 8.775-8.188 8.775-12.547A9.375 9.375 0 0015 3.75zm0 6.563a2.811 2.811 0 110 5.622 2.811 2.811 0 010-5.623z" fill="#fff"/></svg><svg fill="none" viewBox="0 0 30 30" id="location-icon--black" xmlns="http://www.w3.org/2000/svg"><path d="M15 1.875a11.25 11.25 0 0111.25 11.25c0 5.376-3.628 10.324-10.748 14.854a.938.938 0 01-1.005 0C7.379 23.449 3.75 18.5 3.75 13.125A11.25 11.25 0 0115 1.875zm0 1.875a9.375 9.375 0 00-9.375 9.375c0 4.36 2.887 8.546 8.775 12.547l.6.4.6-.4c5.888-4 8.775-8.188 8.775-12.547A9.375 9.375 0 0015 3.75zm0 6.563a2.811 2.811 0 110 5.622 2.811 2.811 0 010-5.623z" fill="#000"/></svg><svg fill="none" viewBox="0 0 36 34" id="mag-glass" xmlns="http://www.w3.org/2000/svg"><mask id="sa" fill="#fff"><path d="M34.795 32.024l-10.63-10.192c2.12-2.41 3.179-5.189 3.179-8.336 0-2.367-.61-4.548-1.829-6.546-1.219-1.997-2.882-3.576-4.99-4.738C18.417 1.051 16.127.47 13.655.47c-2.473 0-4.757.58-6.853 1.742C4.705 3.374 3.048 4.953 1.829 6.95.609 8.948 0 11.13 0 13.496c0 2.366.61 4.548 1.829 6.545 1.219 1.997 2.876 3.576 4.973 4.738 2.096 1.161 4.386 1.742 6.87 1.742 3.395 0 6.38-1.064 8.955-3.191l10.596 10.16c.227.217.49.325.786.325.296 0 .552-.103.769-.309a.996.996 0 00.325-.749.97.97 0 00-.308-.733zM13.672 24.47c-2.097 0-4.028-.494-5.794-1.482s-3.161-2.323-4.187-4.005a10.35 10.35 0 01-1.538-5.487c0-1.976.513-3.805 1.538-5.487C4.717 6.326 6.112 4.99 7.878 4.003c1.766-.987 3.692-1.481 5.777-1.481s4.01.494 5.776 1.481c1.766.988 3.162 2.323 4.187 4.006a10.35 10.35 0 011.538 5.487c0 .846-.102 1.682-.307 2.507a10.303 10.303 0 01-.872 2.312 12.056 12.056 0 01-1.35 2.035c-.524.64-1.117 1.21-1.777 1.71-.661.5-1.368.928-2.12 1.286s-1.56.635-2.426.83a11.92 11.92 0 01-2.632.294z"/></mask><path d="M34.795 32.024l-10.63-10.192c2.12-2.41 3.179-5.189 3.179-8.336 0-2.367-.61-4.548-1.829-6.546-1.219-1.997-2.882-3.576-4.99-4.738C18.417 1.051 16.127.47 13.655.47c-2.473 0-4.757.58-6.853 1.742C4.705 3.374 3.048 4.953 1.829 6.95.609 8.948 0 11.13 0 13.496c0 2.366.61 4.548 1.829 6.545 1.219 1.997 2.876 3.576 4.973 4.738 2.096 1.161 4.386 1.742 6.87 1.742 3.395 0 6.38-1.064 8.955-3.191l10.596 10.16c.227.217.49.325.786.325.296 0 .552-.103.769-.309a.996.996 0 00.325-.749.97.97 0 00-.308-.733zM13.672 24.47c-2.097 0-4.028-.494-5.794-1.482s-3.161-2.323-4.187-4.005a10.35 10.35 0 01-1.538-5.487c0-1.976.513-3.805 1.538-5.487C4.717 6.326 6.112 4.99 7.878 4.003c1.766-.987 3.692-1.481 5.777-1.481s4.01.494 5.776 1.481c1.766.988 3.162 2.323 4.187 4.006a10.35 10.35 0 011.538 5.487c0 .846-.102 1.682-.307 2.507a10.303 10.303 0 01-.872 2.312 12.056 12.056 0 01-1.35 2.035c-.524.64-1.117 1.21-1.777 1.71-.661.5-1.368.928-2.12 1.286s-1.56.635-2.426.83a11.92 11.92 0 01-2.632.294z" fill="#fff"/><path d="M34.795 32.024l-3.46 3.61.005.005.006.005 3.449-3.62zm-10.63-10.192L20.41 18.53l-3.162 3.596 3.456 3.315 3.461-3.609zm-1.538 1.498l3.46-3.61-3.213-3.08-3.432 2.835 3.185 3.855zm10.596 10.16l-3.46 3.609.005.005.006.006 3.449-3.62zm5.032-5.075l-10.63-10.192-6.92 7.218 10.63 10.192 6.92-7.218zM27.92 25.134c2.904-3.303 4.424-7.25 4.424-11.638h-10c0 1.906-.6 3.518-1.934 5.034l7.51 6.604zm4.424-11.638c0-3.275-.858-6.36-2.561-9.15l-8.536 5.21c.735 1.203 1.097 2.482 1.097 3.94h10zm-2.561-9.15c-1.686-2.762-3.998-4.944-6.845-6.513l-4.826 8.759c1.368.754 2.383 1.73 3.135 2.963l8.536-5.21zm-6.845-6.513c-2.868-1.58-5.991-2.363-9.283-2.363v10c1.652 0 3.109.379 4.457 1.122l4.826-8.759zM13.655-4.53c-3.292 0-6.414.783-9.276 2.369l4.846 8.747c1.33-.737 2.777-1.116 4.43-1.116v-10zM4.379-2.16C1.544-.591-.757 1.59-2.44 4.345l8.535 5.21c.757-1.239 1.771-2.217 3.129-2.969L4.379-2.161zM-2.44 4.345C-4.143 7.136-5 10.221-5 13.495H5c0-1.457.362-2.736 1.096-3.94l-8.535-5.21zM-5 13.495c0 3.275.857 6.36 2.56 9.15l8.536-5.209C5.362 16.233 5 14.954 5 13.496H-5zm2.56 9.15c1.683 2.756 3.984 4.937 6.819 6.508l4.846-8.748c-1.358-.752-2.372-1.73-3.129-2.969l-8.535 5.21zm6.819 6.508c2.865 1.587 5.994 2.368 9.293 2.368v-10c-1.668 0-3.12-.38-4.447-1.116l-4.846 8.748zm9.293 2.368c4.537 0 8.653-1.455 12.14-4.337l-6.37-7.709c-1.663 1.374-3.517 2.046-5.77 2.046v10zm5.494-4.582l10.596 10.16 6.921-7.218-10.596-10.16-6.92 7.218zm10.608 10.17a6.105 6.105 0 004.235 1.706v-10c.479 0 .992.091 1.495.3.497.206.884.485 1.168.755l-6.898 7.24zm4.235 1.706a6.076 6.076 0 004.218-1.689l-6.898-7.24a3.885 3.885 0 011.228-.787 3.902 3.902 0 011.452-.284v10zm4.218-1.689a5.995 5.995 0 001.876-4.369h-10c0-.484.092-1.032.33-1.582.239-.548.567-.976.896-1.289l6.898 7.24zm1.876-4.369a5.968 5.968 0 00-1.86-4.353l-6.897 7.24a4.028 4.028 0 01-1.244-2.887h10zM13.671 19.47c-1.274 0-2.36-.29-3.353-.846l-4.881 8.728c2.539 1.42 5.315 2.118 8.234 2.118v-10zm-3.353-.846c-1.036-.58-1.793-1.316-2.358-2.243l-8.54 5.204c1.487 2.437 3.52 4.37 6.017 5.767l4.881-8.728zm-2.358-2.243a5.353 5.353 0 01-.808-2.885h-10c0 2.89.764 5.62 2.269 8.089L7.96 16.38zm-.808-2.885c0-1.06.262-1.989.808-2.885l-8.54-5.204a15.349 15.349 0 00-2.268 8.089h10zm.808-2.885c.565-.927 1.322-1.664 2.358-2.244L5.438-.36C2.942 1.036.908 2.969-.578 5.407L7.96 10.61zm2.358-2.244c.997-.557 2.078-.845 3.336-.845v-10c-2.913 0-5.682.7-8.217 2.118l4.881 8.727zm3.336-.845c1.257 0 2.338.288 3.335.845L21.872-.36c-2.535-1.418-5.305-2.118-8.217-2.118v10zm3.335.845c1.036.58 1.794 1.317 2.359 2.244l8.539-5.204c-1.486-2.438-3.52-4.371-6.016-5.767L16.99 8.367zm2.359 2.244c.546.896.807 1.824.807 2.885h10c0-2.891-.764-5.62-2.268-8.09l-8.54 5.205zm.807 2.885c0 .438-.052.869-.16 1.3l9.705 2.413c.303-1.218.455-2.458.455-3.713h-10zm-.16 1.3c-.113.457-.265.85-.446 1.196l8.854 4.647c.571-1.088 1-2.236 1.297-3.43l-9.705-2.412zm-.446 1.196c-.216.41-.477.807-.793 1.192l7.74 6.333a17.047 17.047 0 001.907-2.878l-8.854-4.647zm-.793 1.192a5.353 5.353 0 01-.922.887l6.029 7.978a15.359 15.359 0 002.632-2.532l-7.738-6.333zm-.922.887c-.39.294-.806.547-1.255.761l4.3 9.028a17.235 17.235 0 002.984-1.81l-6.029-7.98zm-1.255.761a6.53 6.53 0 01-1.377.467l2.201 9.755a16.519 16.519 0 003.477-1.194l-4.3-9.028zm-1.377.467a6.92 6.92 0 01-1.531.17v10c1.258 0 2.505-.138 3.732-.415l-2.2-9.755z" fill="#fff" mask="url(#sa)"/></svg><svg fill="none" viewBox="0 0 75 75" id="measure-icon" xmlns="http://www.w3.org/2000/svg"><path d="M28.125 15.625A21.875 21.875 0 0150 37.5h3.125v9.375H50v12.5H28.125a21.875 21.875 0 110-43.75zm0 9.375a12.5 12.5 0 100 25 12.5 12.5 0 000-25zm25 28.125H68.75v12.5H62.5v-6.25h-9.375v-6.25z" fill="#fff"/></svg><svg fill="none" viewBox="0 0 63 51" id="order-calculations" xmlns="http://www.w3.org/2000/svg"><path d="M22.125.625A21.875 21.875 0 0144 22.5h3.125v9.375H44v12.5H22.125a21.875 21.875 0 110-43.75zm0 9.375a12.5 12.5 0 100 25 12.5 12.5 0 000-25zm25 28.125H62.75v12.5H56.5v-6.25h-9.375v-6.25z" fill="#fff"/></svg><svg fill="none" viewBox="0 0 40 40" id="phone-icon" xmlns="http://www.w3.org/2000/svg"><path d="M24.305 6.089a.625.625 0 01.765-.443 13.149 13.149 0 019.284 9.284.625.625 0 11-1.208.322 11.897 11.897 0 00-8.399-8.398.625.625 0 01-.442-.765zm-.852 5.595a6.887 6.887 0 014.863 4.863.625.625 0 101.207-.323 8.14 8.14 0 00-5.747-5.747.623.623 0 00-.708.918.625.625 0 00.385.29zm12.108 15.594a8.135 8.135 0 01-8.061 7.097c-12.062 0-21.875-9.813-21.875-21.875a8.135 8.135 0 017.097-8.06 1.878 1.878 0 011.95 1.123l3.139 7.324a1.872 1.872 0 01-.155 1.766l-2.6 3.972a.616.616 0 00-.045.603 12.584 12.584 0 005.812 5.786.614.614 0 00.605-.05l3.912-2.608a1.87 1.87 0 011.779-.164l7.318 3.137a1.878 1.878 0 011.123 1.949zm-1.617-.8l-7.318-3.137a.624.624 0 00-.593.054l-3.912 2.61a1.87 1.87 0 01-1.841.135 13.841 13.841 0 01-6.392-6.364 1.87 1.87 0 01.123-1.836l2.599-3.971a.624.624 0 00.052-.589l-3.14-7.324a.625.625 0 00-.643-.376 6.883 6.883 0 00-6.004 6.82c0 11.373 9.252 20.625 20.625 20.625a6.883 6.883 0 006.82-6.004.621.621 0 00-.376-.643z" fill="#fff"/></svg><svg fill="none" viewBox="0 0 40 40" id="phone-icon--black" xmlns="http://www.w3.org/2000/svg"><path d="M24.305 6.089a.625.625 0 01.765-.443 13.149 13.149 0 019.284 9.284.625.625 0 11-1.208.322 11.897 11.897 0 00-8.399-8.398.625.625 0 01-.442-.765zm-.852 5.595a6.887 6.887 0 014.863 4.863.625.625 0 101.207-.323 8.14 8.14 0 00-5.747-5.747.623.623 0 00-.708.918.625.625 0 00.385.29zm12.108 15.594a8.135 8.135 0 01-8.061 7.097c-12.062 0-21.875-9.813-21.875-21.875a8.135 8.135 0 017.097-8.06 1.878 1.878 0 011.95 1.123l3.139 7.324a1.872 1.872 0 01-.155 1.766l-2.6 3.972a.616.616 0 00-.045.603 12.584 12.584 0 005.812 5.786.614.614 0 00.605-.05l3.912-2.608a1.87 1.87 0 011.779-.164l7.318 3.137a1.878 1.878 0 011.123 1.949zm-1.617-.8l-7.318-3.137a.624.624 0 00-.593.054l-3.912 2.61a1.87 1.87 0 01-1.841.135 13.841 13.841 0 01-6.392-6.364 1.87 1.87 0 01.123-1.836l2.599-3.971a.624.624 0 00.052-.589l-3.14-7.324a.625.625 0 00-.643-.376 6.883 6.883 0 00-6.004 6.82c0 11.373 9.252 20.625 20.625 20.625a6.883 6.883 0 006.82-6.004.621.621 0 00-.376-.643z" fill="#000"/></svg><svg fill="none" viewBox="0 0 34 34" id="pop-up-close" xmlns="http://www.w3.org/2000/svg"><path d="M17 .333a16.667 16.667 0 100 33.334A16.667 16.667 0 0017 .333zm4.517 18.817a1.666 1.666 0 010 2.367 1.666 1.666 0 01-2.366 0L17 19.35l-2.15 2.167a1.667 1.667 0 01-2.367 0 1.667 1.667 0 010-2.367L14.651 17l-2.167-2.15a1.674 1.674 0 112.367-2.367L17 14.65l2.15-2.167a1.674 1.674 0 012.366 2.367L19.351 17l2.166 2.15z" fill="#FF2626"/></svg><svg fill="none" viewBox="0 0 95 160" id="products-arrow" xmlns="http://www.w3.org/2000/svg"><path d="M.435 156.958c-.14-8.304 1.155-16.685 1.891-24.874.053-1.062 1.547-1.575 2.3-1.208 4.33 2.271 9.034 4.412 12.5 7.815l.188-.064c23.362-6.152 38.722-33.151 49.53-52.737 12.531-22.475 22.16-47.921 20.544-73.887-.654-3.116-1.372-6.42-2.463-9.595-.514-1.494 1.54-2.2 2.24-.77l.579 1.68c.747-.256 1.5.112 1.82 1.046.52 2.118.666 4.365.999 6.548 15.904 51.125-17.765 117.203-65.978 137.327 2.709 2.41 5.294 5.071 8.188 7.418 1.384.986.339 2.807-1.033 3.069-9.787 1.903-19.732.31-29.478-.098-.811.07-1.815-.421-1.827-1.67zm27.594-1.132c-1.956-2.043-3.537-4.214-5.679-6.192-.695-.806-.39-1.745.105-2.125-.192-.56.053-1.062.549-1.441 42.067-22.814 67.834-65.71 67.092-111.607-3.192 19.265-11.76 38.081-20.91 54.592-6.695 12.116-14.27 23.491-23.229 33.879-7.044 8.06-16.458 16.517-27.634 16.809 1.074 1.302-.91 2.819-2.043 1.955-3.519-2.34-6.974-4.493-10.551-6.396-.625 6.688-1.436 13.441-1.436 20.123 7.809.24 15.874 1.226 23.736.403z" fill="#fff"/></svg><svg fill="none" viewBox="0 0 24 24" id="telegram-icon" xmlns="http://www.w3.org/2000/svg"><path d="M20.665 3.717l-17.73 6.837c-1.21.486-1.203 1.161-.222 1.462l4.552 1.42 10.532-6.645c.498-.303.953-.14.579.192l-8.533 7.701H9.84l.002.001-.314 4.692c.46 0 .663-.211.92-.46l2.212-2.15 4.599 3.397c.848.467 1.457.227 1.668-.785l3.019-14.228c.309-1.239-.473-1.8-1.282-1.434z" fill="#fff"/></svg></svg>