<?xml version="1.0" standalone="no"?>
<!DOCTYPE svg PUBLIC "-//W3C//DTD SVG 20010904//EN"
 "http://www.w3.org/TR/2001/REC-SVG-20010904/DTD/svg10.dtd">
<svg version="1.0" xmlns="http://www.w3.org/2000/svg"
 width="250.000000pt" height="250.000000pt" viewBox="0 0 250.000000 250.000000"
 preserveAspectRatio="xMidYMid meet">
<metadata>
Created by potrace 1.14, written by Peter Selinger 2001-2017
</metadata>
<g transform="translate(0.000000,250.000000) scale(0.100000,-0.100000)"
fill="#000000" stroke="none">
<path d="M1204 1589 c-10 -12 -60 -57 -111 -100 -95 -81 -107 -84 -115 -29 -3
24 -7 25 -78 28 -127 5 -120 13 -120 -142 l0 -133 -110 -101 c-60 -56 -127
-113 -149 -126 -48 -31 -56 -43 -41 -61 16 -19 289 -22 323 -3 12 6 111 97
220 202 109 105 205 192 212 194 8 2 56 -36 107 -85 52 -48 151 -141 221 -206
l127 -117 163 2 c158 3 162 4 165 25 3 17 -11 31 -62 65 -35 23 -102 76 -148
116 -46 41 -123 108 -172 150 -49 42 -156 137 -238 210 -81 72 -154 132 -162
132 -7 0 -21 -10 -32 -21z"/>
<path d="M224 219 c-3 -5 77 -9 177 -9 100 0 180 3 177 6 -10 9 -348 12 -354
3z"/>
<path d="M743 213 c76 -2 198 -2 270 0 73 1 11 3 -138 3 -148 0 -208 -2 -132
-3z"/>
<path d="M1448 213 c29 -2 74 -2 100 0 26 2 2 3 -53 3 -55 0 -76 -1 -47 -3z"/>
<path d="M1768 213 c6 -2 18 -2 25 0 6 3 1 5 -13 5 -14 0 -19 -2 -12 -5z"/>
</g>
</svg>
